# Blender v2.79 (sub 0) OBJ File: ''
# www.blender.org
v 0.000000 -0.469697 -0.500000
v 0.000000 0.530303 -0.000000
v 0.097545 -0.469697 -0.490393
v 0.191342 -0.469697 -0.461940
v 0.277785 -0.469697 -0.415735
v 0.353553 -0.469697 -0.353554
v 0.415735 -0.469697 -0.277785
v 0.461940 -0.469697 -0.191342
v 0.490393 -0.469697 -0.097545
v 0.500000 -0.469697 -0.000000
v 0.490393 -0.469697 0.097545
v 0.461940 -0.469697 0.191341
v 0.415735 -0.469697 0.277785
v 0.353553 -0.469697 0.353553
v 0.277785 -0.469697 0.415735
v 0.191342 -0.469697 0.461940
v 0.097545 -0.469697 0.490393
v -0.000000 -0.469697 0.500000
v -0.097545 -0.469697 0.490392
v -0.191342 -0.469697 0.461940
v -0.277785 -0.469697 0.415735
v -0.353554 -0.469697 0.353553
v -0.415735 -0.469697 0.277785
v -0.461940 -0.469697 0.191341
v -0.490393 -0.469697 0.097545
v -0.500000 -0.469697 -0.000001
v -0.490392 -0.469697 -0.097546
v -0.461939 -0.469697 -0.191342
v -0.415734 -0.469697 -0.277786
v -0.353553 -0.469697 -0.353554
v -0.277784 -0.469697 -0.415735
v -0.191341 -0.469697 -0.461940
v -0.097544 -0.469697 -0.490393
vt 0.000000 0.000000
vt 1.000000 0.000000
vt 1.000000 1.000000
vt 0.000000 0.000000
vt 1.000000 1.000000
vt 0.000000 0.000000
vt 1.000000 1.000000
vt 0.000000 0.000000
vt 1.000000 1.000000
vt 0.000000 0.000000
vt 1.000000 1.000000
vt 0.000000 0.000000
vt 1.000000 1.000000
vt 0.000000 0.000000
vt 1.000000 1.000000
vt 0.000000 0.000000
vt 1.000000 1.000000
vt 0.000000 0.000000
vt 1.000000 1.000000
vt 0.000000 0.000000
vt 1.000000 1.000000
vt 0.000000 0.000000
vt 1.000000 1.000000
vt 0.000000 0.000000
vt 1.000000 1.000000
vt 0.000000 0.000000
vt 1.000000 1.000000
vt 0.000000 0.000000
vt 1.000000 1.000000
vt 0.000000 0.000000
vt 1.000000 1.000000
vt 0.000000 0.000000
vt 1.000000 1.000000
vt 0.000000 0.000000
vt 1.000000 1.000000
vt 0.000000 0.000000
vt 1.000000 1.000000
vt 0.000000 0.000000
vt 1.000000 1.000000
vt 0.000000 0.000000
vt 1.000000 1.000000
vt 0.000000 0.000000
vt 1.000000 1.000000
vt 0.000000 0.000000
vt 1.000000 1.000000
vt 0.000000 0.000000
vt 1.000000 1.000000
vt 0.000000 0.000000
vt 1.000000 1.000000
vt 0.000000 0.000000
vt 1.000000 1.000000
vt 0.000000 0.000000
vt 1.000000 1.000000
vt 0.000000 0.000000
vt 1.000000 1.000000
vt 0.000000 0.000000
vt 1.000000 1.000000
vt 0.000000 0.000000
vt 1.000000 1.000000
vt 0.000000 0.000000
vt 1.000000 1.000000
vt 0.000000 0.000000
vt 1.000000 1.000000
vt 0.000000 0.000000
vt 1.000000 1.000000
vt 0.597545 0.009607
vt 0.009607 0.402455
vt 0.990393 0.597545
vt 0.402456 0.990393
vt 0.500000 1.000000
vt 0.597545 0.990393
vt 0.691342 0.961940
vt 0.777785 0.915735
vt 0.853553 0.853553
vt 0.915735 0.777785
vt 0.961940 0.691342
vt 1.000000 0.500000
vt 0.990393 0.402455
vt 0.961940 0.308658
vt 0.915735 0.222215
vt 0.853553 0.146447
vt 0.777785 0.084265
vt 0.691342 0.038060
vt 0.500000 0.000000
vt 0.402455 0.009607
vt 0.308658 0.038060
vt 0.222215 0.084265
vt 0.146446 0.146447
vt 0.084265 0.222215
vt 0.038060 0.308659
vt 0.000000 0.500000
vt 0.009607 0.597546
vt 0.038060 0.691342
vt 0.084266 0.777786
vt 0.146447 0.853554
vt 0.222215 0.915735
vt 0.308659 0.961940
vn 0.0878 0.4455 -0.8910
vn 0.2599 0.4455 -0.8567
vn 0.4220 0.4455 -0.7896
vn 0.5680 0.4455 -0.6921
vn 0.6921 0.4455 -0.5680
vn 0.7896 0.4455 -0.4220
vn 0.8567 0.4455 -0.2599
vn 0.8910 0.4455 -0.0878
vn 0.8910 0.4455 0.0878
vn 0.8567 0.4455 0.2599
vn 0.7896 0.4455 0.4220
vn 0.6921 0.4455 0.5680
vn 0.5680 0.4455 0.6921
vn 0.4220 0.4455 0.7896
vn 0.2599 0.4455 0.8567
vn 0.0878 0.4455 0.8910
vn -0.0878 0.4455 0.8910
vn -0.2599 0.4455 0.8567
vn -0.4220 0.4455 0.7896
vn -0.5680 0.4455 0.6921
vn -0.6921 0.4455 0.5680
vn -0.7896 0.4455 0.4220
vn -0.8567 0.4455 0.2599
vn -0.8910 0.4455 0.0878
vn -0.8910 0.4455 -0.0878
vn -0.8567 0.4455 -0.2599
vn -0.7896 0.4455 -0.4220
vn -0.6921 0.4455 -0.5680
vn -0.5680 0.4455 -0.6921
vn -0.4220 0.4455 -0.7896
vn -0.2599 0.4455 -0.8567
vn -0.0878 0.4455 -0.8910
vn 0.0000 -1.0000 -0.0000
s off
f 1/1/1 2/2/1 3/3/1
f 3/4/2 2/2/2 4/5/2
f 4/6/3 2/2/3 5/7/3
f 5/8/4 2/2/4 6/9/4
f 6/10/5 2/2/5 7/11/5
f 7/12/6 2/2/6 8/13/6
f 8/14/7 2/2/7 9/15/7
f 9/16/8 2/2/8 10/17/8
f 10/18/9 2/2/9 11/19/9
f 11/20/10 2/2/10 12/21/10
f 12/22/11 2/2/11 13/23/11
f 13/24/12 2/2/12 14/25/12
f 14/26/13 2/2/13 15/27/13
f 15/28/14 2/2/14 16/29/14
f 16/30/15 2/2/15 17/31/15
f 17/32/16 2/2/16 18/33/16
f 18/34/17 2/2/17 19/35/17
f 19/36/18 2/2/18 20/37/18
f 20/38/19 2/2/19 21/39/19
f 21/40/20 2/2/20 22/41/20
f 22/42/21 2/2/21 23/43/21
f 23/44/22 2/2/22 24/45/22
f 24/46/23 2/2/23 25/47/23
f 25/48/24 2/2/24 26/49/24
f 26/50/25 2/2/25 27/51/25
f 27/52/26 2/2/26 28/53/26
f 28/54/27 2/2/27 29/55/27
f 29/56/28 2/2/28 30/57/28
f 30/58/29 2/2/29 31/59/29
f 31/60/30 2/2/30 32/61/30
f 32/62/31 2/2/31 33/63/31
f 33/64/32 2/2/32 1/65/32
f 17/66/33 25/67/33 9/68/33
f 33/69/33 1/70/33 3/71/33
f 3/71/33 4/72/33 5/73/33
f 5/73/33 6/74/33 9/68/33
f 7/75/33 8/76/33 9/68/33
f 9/68/33 10/77/33 11/78/33
f 11/78/33 12/79/33 9/68/33
f 13/80/33 14/81/33 17/66/33
f 15/82/33 16/83/33 17/66/33
f 17/66/33 18/84/33 19/85/33
f 19/85/33 20/86/33 17/66/33
f 21/87/33 22/88/33 23/89/33
f 23/89/33 24/90/33 25/67/33
f 25/67/33 26/91/33 27/92/33
f 27/92/33 28/93/33 29/94/33
f 29/94/33 30/95/33 31/96/33
f 31/96/33 32/97/33 33/69/33
f 33/69/33 3/71/33 5/73/33
f 6/74/33 7/75/33 9/68/33
f 9/68/33 12/79/33 13/80/33
f 14/81/33 15/82/33 17/66/33
f 17/66/33 20/86/33 21/87/33
f 21/87/33 23/89/33 25/67/33
f 25/67/33 27/92/33 29/94/33
f 29/94/33 31/96/33 33/69/33
f 33/69/33 5/73/33 9/68/33
f 9/68/33 13/80/33 17/66/33
f 17/66/33 21/87/33 25/67/33
f 25/67/33 29/94/33 33/69/33
f 33/69/33 9/68/33 25/67/33
